Patient4_TMGait_0pt2_01_left_07_GRF.mot
version=1
nRows=52
nColumns=19
inDegrees=no
endheader
time	F1x	F1y	F1z	M1x	M1y	M1z	F2x	F2y	F2z	M2x	M2y	M2z	EC1x	EC1y	EC1z	EC2x	EC2y	EC2z
14.96	1.5778	22.4868	6.1947	-8.1463	-5.8913	22.2742	-12.666	717.5043	-47.367	248.7636	57.7548	779.6086	-0.0592	0.0182	-0.0073	-0.0462	0.0165	0.9585
14.9841	0.47601	17.3692	5.0098	-6.2745	-5.0127	17.1915	-13.3748	728.9541	-47.4728	252.9006	58.1484	789.329	-0.0592	0.0182	-0.0073	-0.0462	0.0165	0.9585
15.0081	-0.29399	12.1623	3.6978	-4.3823	-3.9113	12.029	-13.8067	743.99	-46.906	258.6882	57.7562	802.0739	-0.0592	0.0182	-0.0073	-0.0462	0.0165	0.9585
15.0322	-0.71147	7.5205	2.4318	-2.704	-2.7529	7.4312	-13.9309	762.6488	-45.4152	266.2402	56.2763	817.8552	-0.0592	0.0182	-0.0073	-0.0462	0.0165	0.9585
15.0563	-0.87463	3.8309	1.3651	-1.3752	-1.7199	3.7834	-13.7453	784.5755	-42.9381	275.4363	53.5918	836.3104	-0.0592	0.0182	-0.0073	-0.0462	0.0165	0.9585
15.0804	-0.88073	1.171	0.55461	-0.42167	-0.89811	1.1663	-13.2873	808.5389	-39.632	285.7384	49.8247	856.2662	-0.0592	0.0182	-0.0073	-0.0462	0.0165	0.9585
15.1044	-0.80802	-0.56687	-0.0066744	0.19792	-0.30538	-0.52756	-12.6707	832.1646	-35.8645	296.1162	45.3573	875.5042	-0.0592	0.0182	-0.0073	-0.0462	0.0165	0.9585
15.1285	-0.71272	-1.5785	-0.35786	0.55648	0.078852	-1.4975	-12.0698	852.2067	-32.1159	305.1883	40.7377	891.013	-0.0592	0.0182	-0.0073	-0.0462	0.0165	0.9585
15.1526	-0.63017	-2.0811	-0.54752	0.7338	0.29198	-1.9721	-11.6321	865.502	-28.8072	311.6199	36.4774	899.879	-0.0592	0.0182	-0.0073	-0.0462	0.0165	0.9585
15.1766	-0.58065	-2.2819	-0.62201	0.80485	0.37288	-2.1612	-11.3684	870.0086	-26.1927	314.5402	32.8941	900.2447	-0.0592	0.0182	-0.0073	-0.0462	0.0165	0.9585
15.2007	-0.57133	-2.3585	-0.62114	0.83291	0.3592	-2.2387	-11.1322	865.319	-24.3542	313.7431	30.0874	891.7646	-0.0592	0.0182	-0.0073	-0.0462	0.0165	0.9585
15.2248	-0.59733	-2.4494	-0.57693	0.86794	0.2868	-2.3415	-10.6956	852.6173	-23.2447	309.6659	27.9934	875.581	-0.0592	0.0182	-0.0073	-0.0462	0.0165	0.9585
15.2489	-0.64815	-2.6528	-0.5163	0.94566	0.18799	-2.5671	-9.8512	834.2428	-22.7503	303.2119	26.4726	853.9253	-0.0592	0.0182	-0.0073	-0.0462	0.0165	0.9585
15.2729	-0.70602	-3.0199	-0.45676	1.0843	0.089054	-2.9653	-8.4654	813.0889	-22.7343	295.509	25.3675	829.558	-0.0592	0.0182	-0.0073	-0.0462	0.0165	0.9585
15.297	-0.73839	-3.5467	-0.40842	1.2816	0.014312	-3.5279	-6.4865	792.0009	-23.061	287.6726	24.5269	805.193	-0.0592	0.0182	-0.0073	-0.0462	0.0165	0.9585
15.3211	-0.69656	-4.1593	-0.37811	1.5108	-0.010151	-4.1803	-3.9318	773.2995	-23.6125	280.622	23.8237	783.0321	-0.0592	0.0182	-0.0073	-0.0462	0.0165	0.9585
15.3451	-0.51352	-4.6978	-0.36891	1.7114	0.044455	-4.7621	-0.85837	758.5043	-24.3033	274.9743	23.1644	764.4922	-0.0592	0.0182	-0.0073	-0.0462	0.0165	0.9585
15.3692	-0.105	-4.8986	-0.38079	1.7803	0.21126	-4.9958	2.6513	748.2442	-25.0827	271.007	22.4903	750.1259	-0.0592	0.0182	-0.0073	-0.0462	0.0165	0.9585
15.3933	0.62374	-4.3732	-0.41344	1.5672	0.52797	-4.4691	6.4923	742.302	-25.9278	268.6724	21.776	739.6804	-0.0592	0.0182	-0.0073	-0.0462	0.0165	0.9585
15.4174	1.7595	-2.5974	-0.46812	0.87358	1.0312	-2.6303	10.566	739.7748	-26.826	267.6558	21.0115	732.265	-0.0592	0.0182	-0.0073	-0.0462	0.0165	0.9585
15.4414	3.3504	1.0669	-0.5498	-0.53905	1.7474	1.1993	14.7759	739.2696	-27.7586	267.4461	20.1926	726.5649	-0.0592	0.0182	-0.0073	-0.0462	0.0165	0.9585
15.4655	5.3616	7.2998	-0.66003	-2.9249	2.6702	7.7504	18.9869	739.1272	-28.697	267.4191	19.3319	721.0793	-0.0592	0.0182	-0.0073	-0.0462	0.0165	0.9585
15.4896	7.6103	16.6918	-0.79275	-6.5028	3.731	17.6656	23.0158	737.7006	-29.5962	266.9424	18.4526	714.3936	-0.0592	0.0182	-0.0073	-0.0462	0.0165	0.9585
15.5136	9.6735	29.5746	-0.92574	-11.3934	4.7507	31.3387	26.637	733.572	-30.3994	265.46	17.5924	705.3903	-0.0592	0.0182	-0.0073	-0.0462	0.0165	0.9585
15.5377	11.0429	45.9554	-1.0155	-17.591	5.485	48.8409	29.5827	725.654	-31.0477	262.5354	16.8164	693.3239	-0.0592	0.0182	-0.0073	-0.0462	0.0165	0.9585
15.5618	11.4839	65.7529	-0.96025	-25.0472	5.7234	70.1477	31.5642	713.2366	-31.4807	257.8779	16.208	677.819	-0.0592	0.0182	-0.0073	-0.0462	0.0165	0.9585
15.5859	10.9067	88.874	-0.53811	-33.6972	5.1764	95.2094	32.3279	695.9967	-31.6237	251.361	15.8292	658.8109	-0.0592	0.0182	-0.0073	-0.0462	0.0165	0.9585
15.6099	9.2871	115.2227	0.5173	-43.4745	3.527	123.9716	31.7549	673.988	-31.3807	243.0257	15.6732	636.4632	-0.0592	0.0182	-0.0073	-0.0462	0.0165	0.9585
15.634	6.7074	144.6055	2.3431	-54.2937	0.64279	156.2484	29.9432	647.5639	-30.6647	233.045	15.6522	611.0388	-0.0592	0.0182	-0.0073	-0.0462	0.0165	0.9585
15.6581	3.3937	176.4918	4.8226	-65.9709	-3.2694	191.4357	27.1993	617.3107	-29.4462	221.682	15.6362	582.8457	-0.0592	0.0182	-0.0073	-0.0462	0.0165	0.9585
15.6821	-0.30633	209.9952	7.6378	-78.2098	-7.7295	228.509	23.9413	584.0635	-27.7825	209.2835	15.5127	552.3317	-0.0592	0.0182	-0.0073	-0.0462	0.0165	0.9585
15.7062	-4.0045	244.1376	10.49	-90.6767	-12.2616	266.3306	20.5787	548.8918	-25.81	196.267	15.2302	520.1643	-0.0592	0.0182	-0.0073	-0.0462	0.0165	0.9585
15.7303	-7.3829	278.1561	13.2183	-103.0973	-16.5637	303.9922	17.4344	512.938	-23.7146	183.0585	14.807	487.1442	-0.0592	0.0182	-0.0073	-0.0462	0.0165	0.9585
15.7544	-10.2465	311.593	15.7917	-115.2939	-20.5157	340.9276	14.7123	477.2191	-21.687	170.0264	14.3055	454.0542	-0.0592	0.0182	-0.0073	-0.0462	0.0165	0.9585
15.7784	-12.4887	344.1475	18.2424	-127.1396	-24.0962	376.7462	12.4895	442.5025	-19.8504	157.4459	13.7776	421.5507	-0.0592	0.0182	-0.0073	-0.0462	0.0165	0.9585
15.8025	-14.0399	375.4655	20.5879	-138.4915	-27.2873	411.0089	10.7407	409.3582	-18.2347	145.522	13.2402	390.1911	-0.0592	0.0182	-0.0073	-0.0462	0.0165	0.9585
15.8266	-14.8693	405.0326	22.7942	-149.1551	-30.0435	443.1333	9.3763	378.2584	-16.8158	134.4195	12.694	360.4877	-0.0592	0.0182	-0.0073	-0.0462	0.0165	0.9585
15.8506	-15.0311	432.1952	24.776	-158.8872	-32.3099	472.4492	8.2746	349.632	-15.5675	124.2772	12.1545	332.9311	-0.0592	0.0182	-0.0073	-0.0462	0.0165	0.9585
15.8747	-14.6871	456.3282	26.4223	-167.4566	-34.0432	498.3847	7.3052	323.8722	-14.4758	115.2118	11.6562	307.9758	-0.0592	0.0182	-0.0073	-0.0462	0.0165	0.9585
15.8988	-14.0647	477.0424	27.6376	-174.7182	-35.228	520.6436	6.3649	301.2661	-13.5353	107.2978	11.237	285.9565	-0.0592	0.0182	-0.0073	-0.0462	0.0165	0.9585
15.9229	-13.3797	494.3036	28.3946	-180.6551	-35.9057	539.2863	5.4169	281.8674	-12.7461	100.5285	10.9198	266.9615	-0.0592	0.0182	-0.0073	-0.0462	0.0165	0.9585
15.9469	-12.7779	508.4797	28.7551	-185.3941	-36.1807	554.7301	4.4944	265.3867	-12.1109	94.7817	10.7032	250.7402	-0.0592	0.0182	-0.0073	-0.0462	0.0165	0.9585
15.971	-12.3172	520.3104	28.8475	-189.2014	-36.1937	567.7077	3.6781	251.1787	-11.6247	89.815	10.5594	236.7007	-0.0592	0.0182	-0.0073	-0.0462	0.0165	0.9585
15.9951	-11.9657	530.8133	28.829	-192.4527	-36.0851	579.1772	3.0529	238.3416	-11.2675	85.3016	10.4445	224.0028	-0.0592	0.0182	-0.0073	-0.0462	0.0165	0.9585
16.0191	-11.6244	541.1411	28.8524	-195.5827	-35.972	590.209	2.668	225.9171	-11.0003	80.9011	10.3108	211.753	-0.0592	0.0182	-0.0073	-0.0462	0.0165	0.9585
16.0432	-11.1794	552.3538	29.0371	-199.0008	-35.9324	601.8019	2.5131	213.1064	-10.7758	76.3351	10.1242	199.2169	-0.0592	0.0182	-0.0073	-0.0462	0.0165	0.9585
16.0673	-10.5584	565.1858	29.446	-203.0059	-36.0065	614.6752	2.5194	199.4045	-10.5535	71.4328	9.8769	185.9451	-0.0592	0.0182	-0.0073	-0.0462	0.0165	0.9585
16.0914	-9.762	579.9163	30.0744	-207.7338	-36.1963	629.1317	2.5853	184.6315	-10.3067	66.1374	9.5831	171.7861	-0.0592	0.0182	-0.0073	-0.0462	0.0165	0.9585
16.1154	-8.8522	596.4117	30.8598	-213.1704	-36.4656	645.0851	2.6054	168.8908	-10.0266	60.4913	9.2704	156.8416	-0.0592	0.0182	-0.0073	-0.0462	0.0165	0.9585
16.1395	-7.9148	614.2973	31.725	-219.2049	-36.7683	662.2077	2.4888	152.4669	-9.7191	54.5996	8.9726	141.374	-0.0592	0.0182	-0.0073	-0.0462	0.0165	0.9585
16.1636	-7.0331	633.1619	32.6303	-225.6955	-37.0922	680.1225	2.18	135.7051	-9.3926	48.5865	8.7119	125.6921	-0.0592	0.0182	-0.0073	-0.0462	0.0165	0.9585
16.1876	-6.2706	652.7151	33.5838	-232.5261	-37.467	698.5617	1.6691	118.91	-9.042	42.5597	8.4834	110.0604	-0.0592	0.0182	-0.0073	-0.0462	0.0165	0.9585
